<?xml version="1.0" encoding="utf-8"?>
<!-- Generator: Adobe Illustrator 19.1.0, SVG Export Plug-In . SVG Version: 6.00 Build 0)  -->
<svg version="1.1" id="Layer_1" xmlns="http://www.w3.org/2000/svg" xmlns:xlink="http://www.w3.org/1999/xlink" x="0px" y="0px"
	 viewBox="0 0 82 82" style="enable-background:new 0 0 82 82;" xml:space="preserve">
<style type="text/css">
	.st0{fill:#FAA41A;}
	.st1{fill:#FFFFFF;}
	.st2{fill:#FFD280;}
</style>
<path class="st0" d="M82,41C82,18.4,63.7,0,41,0C18.4,0,0,18.4,0,41c0,22.7,18.4,41,41,41C63.7,82,82,63.7,82,41L82,41z"/>
<path class="st1" d="M38.7,33.3c0,3.2-2.6,5.7-5.7,5.7c-3.2,0-5.7-2.6-5.7-5.7c0-3.2,2.6-5.7,5.7-5.7C36.1,27.6,38.7,30.2,38.7,33.3
	L38.7,33.3z"/>
<path class="st1" d="M38.7,48.7c0,3.2-2.6,5.7-5.7,5.7c-3.2,0-5.7-2.6-5.7-5.7S29.8,43,33,43C36.1,43,38.7,45.5,38.7,48.7L38.7,48.7
	z"/>
<path class="st2" d="M38.7,64.1c0,3.2-2.6,5.7-5.7,5.7c-3.2,0-5.7-2.6-5.7-5.7c0-3.2,2.6-5.7,5.7-5.7C36.1,58.4,38.7,60.9,38.7,64.1
	L38.7,64.1z"/>
<path class="st1" d="M54.8,33.3c0,3.2-2.6,5.7-5.7,5.7s-5.7-2.6-5.7-5.7c0-3.2,2.6-5.7,5.7-5.7S54.8,30.2,54.8,33.3L54.8,33.3z"/>
<path class="st1" d="M54.8,48.7c0,3.2-2.6,5.7-5.7,5.7s-5.7-2.6-5.7-5.7s2.6-5.7,5.7-5.7S54.8,45.5,54.8,48.7L54.8,48.7z"/>
</svg>
