<?xml version="1.0" encoding="utf-8"?>
<!-- Generator: Adobe Illustrator 19.1.0, SVG Export Plug-In . SVG Version: 6.00 Build 0)  -->
<svg version="1.1" id="Layer_1" xmlns="http://www.w3.org/2000/svg" xmlns:xlink="http://www.w3.org/1999/xlink" x="0px" y="0px"
	 viewBox="0 0 468 158" style="enable-background:new 0 0 468 158;" xml:space="preserve">
<style type="text/css">
	.st0{fill:#ABA29B;}
	.st1{fill:#FAA41A;}
	.st2{fill:#FFFFFF;}
	.st3{fill:#FFD280;}
</style>
<g>
	<path class="st0" d="M95.1,146.5h12.6v-3.9h-4.3v-5.1h3.6c7.5,0,10.4-4.2,10.4-8.3s-2.9-8.3-10.4-8.3H95.1v3.9h3.4v17.8h-3.4V146.5
		L95.1,146.5z M103.4,124.8h3.8c4.1,0,5.4,2.2,5.4,4.4s-1.3,4.4-5.4,4.4h-3.8V124.8L103.4,124.8z M137.5,146.5h11.1v-3.9h-3.4
		l1.3-3.5h10.5l1.3,3.5H155v3.9h11.4v-3.9h-3.1l-8.8-21.7h-10.4v3.9h3.5l-7.2,17.8h-3V146.5L137.5,146.5z M148.1,135.3l3.7-9.6
		l3.8,9.6H148.1L148.1,135.3z M191.3,146.5h12.4v-3.9H200v-17.8h4.8v3.9h4.4V121h-23.2v7.8h4.4v-3.9h4.8v17.8h-3.8V146.5
		L191.3,146.5z M246.1,147c4.3,0,7.6-1.3,9.3-2.2v-4.7c-2.3,1.3-5.5,2.7-8.9,2.7c-5.3,0-9.1-3.1-9.1-9.2c0-5.9,3.6-9.1,8.8-9.1
		c1.6,0,3.4,0.3,4.6,0.6v4.7h4.7v-7.3c-1.6-0.8-5.4-2.1-9.5-2.1c-8,0-13.6,4.9-13.6,13.4C232.3,142.1,237.7,147,246.1,147L246.1,147
		z M279.6,146.5h11.8v-3.9h-3.5v-6.9h12.1v6.9h-3.5v3.9h11.8v-3.9h-3.4v-17.8h3.4V121h-11.8v3.9h3.5v6.9h-12.1v-6.9h3.5V121h-11.8
		v3.9h3.4v17.8h-3.4V146.5L279.6,146.5z M332.7,146.5h21.2v-7.7h-4.5v3.8H341v-7h9.6v-3.9H341v-6.9h8.3v3.6h4.5V121h-21v3.9h3.4
		v17.8h-3.4V146.5L332.7,146.5z M378.3,146.5H390v-3.9h-3.4v-5.5h4.6l5.2,9.4h6.5v-3.9h-3.1l-3.9-6.8c3.5-1.1,5.2-3.9,5.2-6.8
		c0-3.9-2.9-8-10.4-8h-12.3v3.9h3.4v17.8h-3.4V146.5L378.3,146.5z M386.6,133.4v-8.6h4.1c4,0,5.4,2.1,5.4,4.3s-1.3,4.3-5.4,4.3
		H386.6L386.6,133.4z M431.6,146.5h12.1v-3.9h-3.6v-5.2l8.1-12.6h2.8V121h-11.6v3.8h3.6l-5.4,8.6l-5.4-8.6h3.6V121H424v3.9h2.9
		l8.3,12.9v4.9h-3.6V146.5L431.6,146.5z"/>
	<path class="st0" d="M21,132.2h4.6v-1.4h-1.4v-6.5h1.8v1.4h1.6v-2.8H19v2.8h1.6v-1.4h1.8v6.5H21V132.2L21,132.2z M36.1,132.2h4.3
		v-1.4h-1.3v-2.5h4.4v2.5h-1.3v1.4h4.3v-1.4h-1.3v-6.5h1.3v-1.4h-4.3v1.4h1.3v2.5h-4.4v-2.5h1.3v-1.4h-4.3v1.4h1.3v6.5h-1.3V132.2
		L36.1,132.2z M55.5,132.2h7.8v-2.8h-1.7v1.4h-3.1v-2.6h3.5v-1.4h-3.5v-2.5h3v1.3h1.6v-2.8h-7.7v1.4h1.3v6.5h-1.3V132.2L55.5,132.2z
		"/>
	<polygon class="st1" points="19,137 19,138.3 63.3,138.3 63.3,137 19,137 	"/>
	<path class="st1" d="M314.1,53c0-22.7-18.4-41-41-41c-22.7,0-41,18.4-41,41c0,22.7,18.4,41,41,41C295.7,94,314.1,75.7,314.1,53
		L314.1,53z"/>
	<path class="st2" d="M270.8,45.3c0,3.2-2.6,5.7-5.7,5.7c-3.2,0-5.7-2.6-5.7-5.7c0-3.2,2.6-5.7,5.7-5.7
		C268.2,39.6,270.8,42.2,270.8,45.3L270.8,45.3z"/>
	<path class="st2" d="M270.8,60.7c0,3.2-2.6,5.7-5.7,5.7c-3.2,0-5.7-2.6-5.7-5.7s2.6-5.7,5.7-5.7C268.2,55,270.8,57.5,270.8,60.7
		L270.8,60.7z"/>
	<path class="st3" d="M270.8,76.1c0,3.2-2.6,5.7-5.7,5.7c-3.2,0-5.7-2.6-5.7-5.7c0-3.2,2.6-5.7,5.7-5.7
		C268.2,70.4,270.8,72.9,270.8,76.1L270.8,76.1z"/>
	<path class="st2" d="M286.8,45.3c0,3.2-2.6,5.7-5.7,5.7s-5.7-2.6-5.7-5.7c0-3.2,2.6-5.7,5.7-5.7S286.8,42.2,286.8,45.3L286.8,45.3z
		"/>
	<path class="st2" d="M286.8,60.7c0,3.2-2.6,5.7-5.7,5.7s-5.7-2.6-5.7-5.7s2.6-5.7,5.7-5.7S286.8,57.5,286.8,60.7L286.8,60.7z"/>
</g>
</svg>
